<mxfile host="65bd71144e">
    <diagram name="Architecture Diagram" id="0">
        <mxGraphModel dx="683" dy="326" grid="1" gridSize="10" guides="1" tooltips="1" connect="1" arrows="1" fold="1" page="1" pageScale="1" pageWidth="200" pageHeight="200" math="0" shadow="0">
            <root>
                <mxCell id="0"/>
                <mxCell id="1" parent="0"/>
                <mxCell id="12" value="Host Memory" style="shape=rectangle;fillColor=#63C2EB;fontColor=#ffffff;strokeColor=black;rounded=0;whiteSpace=wrap;html=1;" parent="1" vertex="1">
                    <mxGeometry y="160" width="200" height="40" as="geometry"/>
                </mxCell>
                <mxCell id="17" value="Polynnomial Commitment" style="shape=rectangle;fillColor=#63C2EB;fontColor=#ffffff;strokeColor=black;rounded=0;whiteSpace=wrap;html=1;" parent="1" vertex="1">
                    <mxGeometry y="130" width="100" height="30" as="geometry"/>
                </mxCell>
                <mxCell id="14" value="Lookup Tables" style="shape=rectangle;fillColor=#FCAF17;fontColor=#ffffff;strokeColor=black;rounded=0;whiteSpace=wrap;html=1;" parent="1" vertex="1">
                    <mxGeometry x="100" y="130" width="100" height="30" as="geometry"/>
                </mxCell>
                <mxCell id="15" value="&lt;br&gt;&lt;br&gt;&lt;br&gt;&lt;br&gt;&lt;br&gt;&lt;br&gt;&lt;br&gt;Expander Executor" style="shape=rectangle;fillColor=#008a00;fontColor=#ffffff;strokeColor=#005700;rounded=0;whiteSpace=wrap;html=1;" parent="1" vertex="1">
                    <mxGeometry width="200" height="130" as="geometry"/>
                </mxCell>
                <mxCell id="18" value="&lt;font style=&quot;font-size: 8px;&quot;&gt;&lt;br&gt;&lt;br&gt;&lt;br&gt;&lt;br&gt;&lt;br&gt;zkSM&lt;/font&gt;" style="whiteSpace=wrap;html=1;fillColor=#60a917;fontColor=#ffffff;strokeColor=#2D7600;align=center;" parent="1" vertex="1">
                    <mxGeometry x="10" y="10" width="80" height="90" as="geometry"/>
                </mxCell>
                <mxCell id="20" value="thread" style="whiteSpace=wrap;html=1;fontSize=8;fillColor=#f0a30a;fontColor=#000000;strokeColor=#BD7000;" parent="1" vertex="1">
                    <mxGeometry x="20" y="20" width="30" height="15" as="geometry"/>
                </mxCell>
                <mxCell id="21" value="thread" style="whiteSpace=wrap;html=1;fontSize=8;fillColor=#f0a30a;fontColor=#000000;strokeColor=#BD7000;" parent="1" vertex="1">
                    <mxGeometry x="50" y="20" width="30" height="15" as="geometry"/>
                </mxCell>
                <mxCell id="24" value="thread" style="whiteSpace=wrap;html=1;fontSize=8;fillColor=#f0a30a;fontColor=#000000;strokeColor=#BD7000;" parent="1" vertex="1">
                    <mxGeometry x="20" y="35" width="30" height="15" as="geometry"/>
                </mxCell>
                <mxCell id="25" value="thread" style="whiteSpace=wrap;html=1;fontSize=8;fillColor=#f0a30a;fontColor=#000000;strokeColor=#BD7000;" parent="1" vertex="1">
                    <mxGeometry x="50" y="35" width="30" height="15" as="geometry"/>
                </mxCell>
                <mxCell id="26" value="thread" style="whiteSpace=wrap;html=1;fontSize=8;fillColor=#f0a30a;fontColor=#000000;strokeColor=#BD7000;" parent="1" vertex="1">
                    <mxGeometry x="20" y="50" width="30" height="15" as="geometry"/>
                </mxCell>
                <mxCell id="27" value="thread" style="whiteSpace=wrap;html=1;fontSize=8;fillColor=#f0a30a;fontColor=#000000;strokeColor=#BD7000;" parent="1" vertex="1">
                    <mxGeometry x="50" y="50" width="30" height="15" as="geometry"/>
                </mxCell>
                <mxCell id="28" value="thread" style="whiteSpace=wrap;html=1;fontSize=8;fillColor=#f0a30a;fontColor=#000000;strokeColor=#BD7000;" parent="1" vertex="1">
                    <mxGeometry x="20" y="65" width="30" height="15" as="geometry"/>
                </mxCell>
                <mxCell id="29" value="thread" style="whiteSpace=wrap;html=1;fontSize=8;fillColor=#f0a30a;fontColor=#000000;strokeColor=#BD7000;" parent="1" vertex="1">
                    <mxGeometry x="50" y="65" width="30" height="15" as="geometry"/>
                </mxCell>
                <mxCell id="30" value="&lt;font style=&quot;font-size: 8px;&quot;&gt;&lt;br&gt;&lt;br&gt;&lt;br&gt;&lt;br&gt;&lt;br&gt;zkSM&lt;/font&gt;" style="whiteSpace=wrap;html=1;fillColor=#60a917;fontColor=#ffffff;strokeColor=#2D7600;align=center;" parent="1" vertex="1">
                    <mxGeometry x="111" y="10" width="80" height="90" as="geometry"/>
                </mxCell>
                <mxCell id="31" value="thread" style="whiteSpace=wrap;html=1;fontSize=8;fillColor=#f0a30a;fontColor=#000000;strokeColor=#BD7000;" parent="1" vertex="1">
                    <mxGeometry x="121" y="20" width="30" height="15" as="geometry"/>
                </mxCell>
                <mxCell id="32" value="thread" style="whiteSpace=wrap;html=1;fontSize=8;fillColor=#f0a30a;fontColor=#000000;strokeColor=#BD7000;" parent="1" vertex="1">
                    <mxGeometry x="151" y="20" width="30" height="15" as="geometry"/>
                </mxCell>
                <mxCell id="33" value="thread" style="whiteSpace=wrap;html=1;fontSize=8;fillColor=#f0a30a;fontColor=#000000;strokeColor=#BD7000;" parent="1" vertex="1">
                    <mxGeometry x="121" y="35" width="30" height="15" as="geometry"/>
                </mxCell>
                <mxCell id="34" value="thread" style="whiteSpace=wrap;html=1;fontSize=8;fillColor=#f0a30a;fontColor=#000000;strokeColor=#BD7000;" parent="1" vertex="1">
                    <mxGeometry x="151" y="35" width="30" height="15" as="geometry"/>
                </mxCell>
                <mxCell id="35" value="thread" style="whiteSpace=wrap;html=1;fontSize=8;fillColor=#f0a30a;fontColor=#000000;strokeColor=#BD7000;" parent="1" vertex="1">
                    <mxGeometry x="121" y="50" width="30" height="15" as="geometry"/>
                </mxCell>
                <mxCell id="36" value="thread" style="whiteSpace=wrap;html=1;fontSize=8;fillColor=#f0a30a;fontColor=#000000;strokeColor=#BD7000;" parent="1" vertex="1">
                    <mxGeometry x="151" y="50" width="30" height="15" as="geometry"/>
                </mxCell>
                <mxCell id="37" value="thread" style="whiteSpace=wrap;html=1;fontSize=8;fillColor=#f0a30a;fontColor=#000000;strokeColor=#BD7000;" parent="1" vertex="1">
                    <mxGeometry x="121" y="65" width="30" height="15" as="geometry"/>
                </mxCell>
                <mxCell id="38" value="thread" style="whiteSpace=wrap;html=1;fontSize=8;fillColor=#f0a30a;fontColor=#000000;strokeColor=#BD7000;" parent="1" vertex="1">
                    <mxGeometry x="151" y="65" width="30" height="15" as="geometry"/>
                </mxCell>
            </root>
        </mxGraphModel>
    </diagram>
</mxfile>